# xmcd
#
# Track frame offsets:
#	150
#	18096
#	34896
#	52412
#	65966
#	80660
#	96395
#	122405
#	135633
#	146696
#	160528
#	182156
#	207490
#
# Disc length: 3038 seconds
#
# Revision: 0
# Processed by: cddbd v1.5.1PL2 Copyright (c) Steve Scherf et al.
# Submitted via: audiograbber 1.83.01
#
DISCID=c10bdc0d
DTITLE=The Blind Robins - The Origin Of The Wasteland
DYEAR=2004
DGENRE=Country-Rock
TTITLE0=That Goddamn Herbert Hoover
TTITLE1=Tom Paine´s Bones
TTITLE2=By The End Of The Day
TTITLE3=The Ruthless Phase
TTITLE4=Richard Burton
TTITLE5=Campaigner
TTITLE6=The Origin Of The Wasteland
TTITLE7=Cry Wine
TTITLE8=Whorehouse
TTITLE9=Buy Sell Pawn
TTITLE10=Landscape
TTITLE11=Matthew Hopkins Blues
TTITLE12=Halving The Compass
EXTD=
EXTT0=
EXTT1=
EXTT2=
EXTT3=
EXTT4=
EXTT5=
EXTT6=
EXTT7=
EXTT8=
EXTT9=
EXTT10=
EXTT11=
EXTT12=
PLAYORDER=
